<svg id="post" xmlns="http://www.w3.org/2000/svg" width="16.905" height="16.905" viewBox="0 0 16.905 16.905">
  <path id="Path_570" data-name="Path 570" d="M15.673,169.333H1.233A1.239,1.239,0,0,0,0,170.566v8.8A1.239,1.239,0,0,0,1.233,180.6h14.44a1.239,1.239,0,0,0,1.233-1.233v-8.8A1.239,1.239,0,0,0,15.673,169.333Zm-.88,3.346v4.578a1.234,1.234,0,0,1-1.233,1.233H9.685a1.234,1.234,0,0,1-1.233-1.233v-4.578a1.234,1.234,0,0,1,1.233-1.233h3.874A1.234,1.234,0,0,1,14.792,172.679ZM6.516,175.32H2.641a.528.528,0,0,1,0-1.057H6.516a.528.528,0,0,1,0,1.057Zm.528,1.585a.532.532,0,0,1-.528.528H2.641a.528.528,0,1,1,0-1.057H6.516A.532.532,0,0,1,7.044,176.905Zm-.528-3.7H2.641a.528.528,0,1,1,0-1.057H6.516a.528.528,0,1,1,0,1.057Z" transform="translate(0 -163.698)"/>
  <path id="Path_571" data-name="Path 571" d="M15.673,0H1.233A1.234,1.234,0,0,0,0,1.233V2.994A1.234,1.234,0,0,0,1.233,4.226h14.44a1.234,1.234,0,0,0,1.233-1.233V1.233A1.234,1.234,0,0,0,15.673,0Z" transform="translate(0)"/>
</svg>
